<?xml version="1.0" encoding="utf-8"?>
<!-- Generator: Adobe Illustrator 18.0.0, SVG Export Plug-In . SVG Version: 6.00 Build 0)  -->
<!DOCTYPE svg PUBLIC "-//W3C//DTD SVG 1.1//EN" "http://www.w3.org/Graphics/SVG/1.1/DTD/svg11.dtd">
<svg version="1.1" id="Layer_1" xmlns="http://www.w3.org/2000/svg" xmlns:xlink="http://www.w3.org/1999/xlink" x="0px" y="0px"
	 viewBox="0 0 276.7 116.7" enable-background="new 0 0 276.7 116.7" xml:space="preserve">
<path fill="#3DAD24" d="M38.1,50.6c-4.8,0-9.1,1.6-12.3,5l0.7-12.9h-8.8l-2.4,45.9h8.4l0.3-4.8c2.8,3.6,7,5.3,12.2,5.3
	c11,0,19.4-7.6,20.1-19.3C56.8,58.1,49.1,50.6,38.1,50.6z M35.5,81.5c-6.3,0-10.9-4.6-10.6-11.7C25.3,62.6,30.4,58,36.7,58
	c6.3,0,10.9,4.6,10.5,11.7C46.9,77,41.8,81.5,35.5,81.5z"/>
<path fill="#3DAD24" d="M93.2,55.6c-2.8-3.4-7-5-11.8-5c-11,0-19.4,7.5-20,19.2c-0.6,11.7,7,19.3,18,19.3c5.1,0,9.6-1.8,12.7-5.3
	l-0.3,4.8h8.4l2-37.5h-8.8L93.2,55.6z M80.8,81.5c-6.3,0-10.9-4.6-10.5-11.7C70.7,62.6,75.7,58,82,58c6.4,0,10.9,4.6,10.6,11.7
	C92.2,77,87.2,81.5,80.8,81.5z"/>
<path fill="#FF7D08" d="M145.9,41.9h-30.1c-6.1,0-11.1,4.8-11.5,10.9l-0.8,14.3C102.7,82.2,114.8,95,130,95
	c14.1,0,25.8-11,26.5-25.1l0.8-15.9C157.7,47.4,152.4,41.9,145.9,41.9z M133.7,89.4c-7.7,0-12-4.1-11.6-11.9l1.7-31.7h8.3l-0.4,8.1
	h9.5l-0.3,6.6h-9.5l-0.9,16.8c-0.2,3.4,1.5,5.3,4.6,5.3c1.7,0,3.4-0.5,4.7-1.5l2,5.9C139.7,88.6,136.7,89.4,133.7,89.4z"/>
<path fill="#3DAD24" d="M189.3,55c-2.8-3.4-7-5-11.8-5c-11,0-19.4,7.5-20,19.2c-0.6,11.7,7,19.3,18,19.3c5.1,0,9.6-1.8,12.7-5.3
	L188,88h8.4l2-37.5h-8.8L189.3,55z M176.9,81c-6.3,0-10.9-4.6-10.5-11.7c0.4-7.2,5.4-11.7,11.7-11.7c6.4,0,10.9,4.6,10.6,11.7
	C188.3,76.4,183.3,81,176.9,81z"/>
<path fill="#3DAD24" d="M255.8,50l-0.2,4.6c-2.8-3.4-7-5-11.8-5c-11,0-19.4,7.5-20,19.2c-0.6,11.7,7,19.3,18,19.3
	c5.1,0,9.6-1.8,12.7-5.3l-0.3,4.8h8.4l2-37.5H255.8z M243.2,80.5c-6.3,0-10.9-4.6-10.5-11.7c0.4-7.2,5.4-11.7,11.7-11.7
	c6.4,0,10.9,4.6,10.6,11.7C254.6,76,249.6,80.5,243.2,80.5z"/>
<g id="Shopping_Cart_-_Orange">
</g>
<polygon fill="none" points="157.6,17 149.4,17.9 155.5,18.5 155.2,21.2 "/>
<path fill="#3DAD24" d="M140.2,11.1c-8.2,1.3-11.5,7.3-9.8,15.8c2.8-1.7,5.6-3.4,8.4-5.1c-5.7,5.1-9,11.2-10.6,18.2h3.6
	c0.6-4.3,2.8-5,9.1-5.8c4.4-0.6,9.7-2.7,12.5-5.9c4.3-5,6.9-11.6,11-19C155.1,9.9,147.6,9.9,140.2,11.1z M152.7,11.6l9.1-0.9
	l-2.6,4.7l0.2-3L152.7,11.6z"/>
<path fill="#3DAD24" d="M120.3,30.4c1.8,1,3.1,1.8,5,2.9c-1.7-7.9-7.3-11-14.2-9.1l0,0l-0.3,0.1c-1.4,0.4-2.9,1-4.3,1.8
	c3.3,9.2,10.2,13.2,20.4,13C124.8,36.3,122.8,33.7,120.3,30.4z"/>
<path fill="#3DAD24" d="M204.6,45.6L203,76.2c-0.4,8.3,4,12.6,12.3,12.6c3.2,0,6.4-0.8,8.6-2.5l-2.1-6.3c-1.4,1.1-3.2,1.5-5,1.5
	c-3.3,0-5.1-2-4.9-5.6l0.9-17.8h10l0.4-7h-10l0.3-5.5H204.6z"/>
</svg>
