<svg width="95" height="22" viewBox="0 0 95 22" fill="none" xmlns="http://www.w3.org/2000/svg">
<path d="M3.97063 7.84246C4.48114 7.05919 5.18073 6.42279 6.06939 5.93324C6.97697 5.4437 8.00744 5.19893 9.16081 5.19893C10.5033 5.19893 11.7134 5.54161 12.7911 6.22697C13.8878 6.91233 14.7481 7.89141 15.372 9.16422C16.0149 10.4174 16.3363 11.8763 16.3363 13.5407C16.3363 15.2052 16.0149 16.6836 15.372 17.976C14.7481 19.2488 13.8878 20.2377 12.7911 20.9426C11.7134 21.6475 10.5033 22 9.16081 22C7.98853 22 6.95806 21.765 6.06939 21.2951C5.19964 20.8055 4.50005 20.1789 3.97063 19.4152V21.7356H0V0H3.97063V7.84246ZM12.2806 13.5407C12.2806 12.5616 12.0821 11.7196 11.685 11.0147C11.3068 10.2902 10.7963 9.74188 10.1535 9.36983C9.52951 8.99777 8.84883 8.81175 8.11143 8.81175C7.39294 8.81175 6.71226 9.00757 6.06939 9.3992C5.44544 9.77125 4.93493 10.3195 4.53786 11.0441C4.15971 11.7686 3.97063 12.6204 3.97063 13.5995C3.97063 14.5785 4.15971 15.4304 4.53786 16.1549C4.93493 16.8794 5.44544 17.4375 6.06939 17.8291C6.71226 18.2012 7.39294 18.3872 8.11143 18.3872C8.84883 18.3872 9.52951 18.1914 10.1535 17.7997C10.7963 17.4081 11.3068 16.85 11.685 16.1255C12.0821 15.401 12.2806 14.5394 12.2806 13.5407Z" fill="#001427"/>
<path d="M18.2006 13.5407C18.2006 11.8959 18.5126 10.437 19.1366 9.16422C19.7794 7.89141 20.6397 6.91233 21.7175 6.22697C22.8141 5.54161 24.0337 5.19893 25.3761 5.19893C26.5484 5.19893 27.5694 5.4437 28.4392 5.93324C29.3279 6.42279 30.0369 7.03961 30.5663 7.78371V5.46328H34.5653V21.7356H30.5663V19.3565C30.0558 20.1202 29.3468 20.7566 28.4392 21.2657C27.5505 21.7552 26.5201 22 25.3478 22C24.0242 22 22.8141 21.6475 21.7175 20.9426C20.6397 20.2377 19.7794 19.2488 19.1366 17.976C18.5126 16.6836 18.2006 15.2052 18.2006 13.5407ZM30.5663 13.5995C30.5663 12.6008 30.3772 11.749 29.9991 11.0441C29.6209 10.3195 29.1104 9.77125 28.4676 9.3992C27.8247 9.00757 27.1346 8.81175 26.3972 8.81175C25.6598 8.81175 24.9791 8.99777 24.3551 9.36983C23.7312 9.74188 23.2207 10.2902 22.8236 11.0147C22.4454 11.7196 22.2564 12.5616 22.2564 13.5407C22.2564 14.5198 22.4454 15.3814 22.8236 16.1255C23.2207 16.85 23.7312 17.4081 24.3551 17.7997C24.998 18.1914 25.6787 18.3872 26.3972 18.3872C27.1346 18.3872 27.8247 18.2012 28.4676 17.8291C29.1104 17.4375 29.6209 16.8892 29.9991 16.1842C30.3772 15.4597 30.5663 14.5981 30.5663 13.5995Z" fill="#001427"/>
<path d="M43.0663 8.84112V16.713C43.0663 17.2612 43.1892 17.6627 43.435 17.9172C43.6997 18.1522 44.1346 18.2697 44.7396 18.2697H46.5831V21.7356H44.0873C40.7406 21.7356 39.0673 20.0516 39.0673 16.6836V8.84112H37.1954V5.46328H39.0673V1.43925H43.0663V5.46328H46.5831V8.84112H43.0663Z" fill="#001427"/>
<path d="M48.418 13.5407C48.418 11.8959 48.73 10.437 49.3539 9.16422C49.9968 7.89141 50.8571 6.91233 51.9348 6.22697C53.0315 5.54161 54.251 5.19893 55.5935 5.19893C56.7658 5.19893 57.7868 5.4437 58.6565 5.93324C59.5452 6.42279 60.2542 7.03961 60.7837 7.78371V5.46328H64.7827V21.7356H60.7837V19.3565C60.2732 20.1202 59.5641 20.7566 58.6565 21.2657C57.7679 21.7552 56.7374 22 55.5651 22C54.2416 22 53.0315 21.6475 51.9348 20.9426C50.8571 20.2377 49.9968 19.2488 49.3539 17.976C48.73 16.6836 48.418 15.2052 48.418 13.5407ZM60.7837 13.5995C60.7837 12.6008 60.5946 11.749 60.2164 11.0441C59.8383 10.3195 59.3278 9.77125 58.6849 9.3992C58.042 9.00757 57.3519 8.81175 56.6145 8.81175C55.8771 8.81175 55.1964 8.99777 54.5725 9.36983C53.9485 9.74188 53.438 10.2902 53.0409 11.0147C52.6628 11.7196 52.4737 12.5616 52.4737 13.5407C52.4737 14.5198 52.6628 15.3814 53.0409 16.1255C53.438 16.85 53.9485 17.4081 54.5725 17.7997C55.2153 18.1914 55.896 18.3872 56.6145 18.3872C57.3519 18.3872 58.042 18.2012 58.6849 17.8291C59.3278 17.4375 59.8383 16.8892 60.2164 16.1842C60.5946 15.4597 60.7837 14.5981 60.7837 13.5995Z" fill="#001427"/>
<path d="M73.2836 8.84112V16.713C73.2836 17.2612 73.4065 17.6627 73.6523 17.9172C73.917 18.1522 74.3519 18.2697 74.957 18.2697H76.8005V21.7356H74.3046C70.958 21.7356 69.2846 20.0516 69.2846 16.6836V8.84112H67.4128V5.46328H69.2846V1.43925H73.2836V5.46328H76.8005V8.84112H73.2836Z" fill="#001427"/>
<path d="M78.6353 13.5407C78.6353 11.8959 78.9473 10.437 79.5713 9.16422C80.2141 7.89141 81.0744 6.91233 82.1522 6.22697C83.2488 5.54161 84.4684 5.19893 85.8108 5.19893C86.9831 5.19893 88.0041 5.4437 88.8739 5.93324C89.7625 6.42279 90.4716 7.03961 91.001 7.78371V5.46328H95V21.7356H91.001V19.3565C90.4905 20.1202 89.7815 20.7566 88.8739 21.2657C87.9852 21.7552 86.9547 22 85.7825 22C84.4589 22 83.2488 21.6475 82.1522 20.9426C81.0744 20.2377 80.2141 19.2488 79.5713 17.976C78.9473 16.6836 78.6353 15.2052 78.6353 13.5407ZM91.001 13.5995C91.001 12.6008 90.8119 11.749 90.4338 11.0441C90.0556 10.3195 89.5451 9.77125 88.9022 9.3992C88.2594 9.00757 87.5693 8.81175 86.8318 8.81175C86.0945 8.81175 85.4138 8.99777 84.7898 9.36983C84.1658 9.74188 83.6553 10.2902 83.2583 11.0147C82.8801 11.7196 82.691 12.5616 82.691 13.5407C82.691 14.5198 82.8801 15.3814 83.2583 16.1255C83.6553 16.85 84.1658 17.4081 84.7898 17.7997C85.4327 18.1914 86.1134 18.3872 86.8318 18.3872C87.5693 18.3872 88.2594 18.2012 88.9022 17.8291C89.5451 17.4375 90.0556 16.8892 90.4338 16.1842C90.8119 15.4597 91.001 14.5981 91.001 13.5995Z" fill="#001427"/>
</svg>
